<svg xmlns="http://www.w3.org/2000/svg" xmlns:xlink="http://www.w3.org/1999/xlink" viewBox="0 0 283.46 283.46"><defs><style>.a{opacity:.35;fill:url(#a)}.b{fill:url(#b)}.c{fill:url(#c)}.d{fill:url(#d)}.e{fill:url(#e)}.f{fill:url(#f)}.g{fill:url(#g)}.h{fill:url(#h)}.i{fill:url(#i)}.j,.k,.l,.m,.n,.o,.p,.q,.r{fill:none;stroke-linecap:round;stroke-miterlimit:10;stroke-width:2.5px}.j{stroke:url(#j)}.k{stroke:url(#k)}.l{stroke:url(#l)}.m{stroke:url(#m)}.n{stroke:url(#n)}.o{stroke:url(#o)}.p{stroke:url(#p)}.q{stroke:url(#q)}.r{stroke:url(#r)}</style><radialGradient id="a" cx="141.73" cy="103.57" r="102.16" gradientUnits="userSpaceOnUse"><stop offset="0" stop-color="#2aff91"/><stop offset="1" stop-color="#fff" stop-opacity="0"/></radialGradient><linearGradient id="b" x1="90.72" x2="192.75" y1="206.46" y2="206.46" gradientUnits="userSpaceOnUse"><stop offset="0" stop-color="#273469"/><stop offset=".18" stop-color="#283877"/><stop offset=".51" stop-color="#2a449b"/><stop offset=".95" stop-color="#2e56d5"/><stop offset="1" stop-color="#2e58db"/></linearGradient><linearGradient id="c" x1="116.97" x2="164.99" y1="133.13" y2="87.53" gradientUnits="userSpaceOnUse"><stop offset="0" stop-color="#196cf2"/><stop offset="1" stop-color="#59cef1"/></linearGradient><linearGradient id="d" x1="-63.11" x2="-60.84" y1="4294.17" y2="4269.92" gradientTransform="translate(-2889.62 -2919.72) rotate(-45)" gradientUnits="userSpaceOnUse"><stop offset="0" stop-color="#196cf2"/><stop offset=".1" stop-color="#1e6ff2" stop-opacity=".98"/><stop offset=".23" stop-color="#2e79f3" stop-opacity=".91"/><stop offset=".37" stop-color="#488af5" stop-opacity=".8"/><stop offset=".53" stop-color="#6ba1f7" stop-opacity=".64"/><stop offset=".7" stop-color="#99bef9" stop-opacity=".44"/><stop offset=".87" stop-color="#d0e1fc" stop-opacity=".2"/><stop offset="1" stop-color="#fff" stop-opacity="0"/></linearGradient><linearGradient id="e" x1="-10016.13" x2="-10013.86" y1="-410.02" y2="-434.28" gradientTransform="translate(-7189.79 6835.2) rotate(135)" xlink:href="#d"/><linearGradient id="f" x1="-7247.58" x2="-7245.3" y1="6923.23" y2="6898.98" gradientTransform="translate(-9819.06 -87.38) rotate(-135)" xlink:href="#d"/><linearGradient id="g" x1="-2447.11" x2="-2444.83" y1="-3173.72" y2="-3197.97" gradientTransform="translate(-431.82 4035.5) rotate(45)" xlink:href="#d"/><linearGradient id="h" x1="-7.41" x2="21.6" y1="4279.27" y2="4279.27" gradientTransform="translate(134.2 -4178.1)" xlink:href="#b"/><linearGradient id="i" x1="139.96" x2="144.28" y1="284.23" y2="228.59" xlink:href="#c"/><linearGradient id="j" x1="87.3" x2="142.54" y1="7.41" y2="7.41" gradientUnits="userSpaceOnUse"><stop offset="0" stop-color="#00a022"/><stop offset="1" stop-color="#2aff91"/></linearGradient><linearGradient id="k" x1="159.55" x2="197.59" y1="9.08" y2="9.08" xlink:href="#j"/><linearGradient id="l" x1="227" x2="243.59" y1="72.74" y2="72.74" xlink:href="#j"/><linearGradient id="m" x1="225.86" x2="243.71" y1="130.74" y2="130.74" xlink:href="#j"/><linearGradient id="n" x1="182.9" x2="199.65" y1="188.76" y2="188.76" xlink:href="#j"/><linearGradient id="o" x1="40.74" x2="56.2" y1="64.52" y2="64.52" xlink:href="#j"/><linearGradient id="p" x1="93.78" x2="188.81" y1="19.79" y2="19.79" xlink:href="#j"/><linearGradient id="q" x1="215.31" x2="228.71" y1="69.58" y2="69.58" xlink:href="#j"/><linearGradient id="r" x1="215.31" x2="230.73" y1="120.68" y2="120.68" xlink:href="#j"/></defs><title>MyBit-Icon-Set</title><circle cx="141.73" cy="103.57" r="102.16" class="a"/><polygon points="192.75 283.46 90.72 283.46 110.13 129.46 173.34 129.46 192.75 283.46" class="b"/><path d="M173.34,129.46H110.12L115,90.81s.69-17.6,26.74-17.6,26.74,17.6,26.74,17.6Z" class="c"/><polygon points="41.81 178.22 66.19 202.59 137.45 114.16 130.24 106.95 41.81 178.22" class="d"/><polygon points="243 25.79 218.62 1.41 147.35 89.84 154.56 97.05 243 25.79" class="e"/><polygon points="218.09 202.34 242.46 177.96 154.03 106.7 146.82 113.91 218.09 202.34" class="f"/><polygon points="65.1 .6 40.73 24.98 129.16 96.24 136.37 89.03 65.1 .6" class="g"/><circle cx="141.29" cy="101.17" r="14.51" class="h" transform="translate(-30.15 129.54) rotate(-45)"/><path d="M136.58,228.31h10.3a11.39,11.39,0,0,1,11.39,11.39v43.76a0,0,0,0,1,0,0H125.19a0,0,0,0,1,0,0V239.7a11.39,11.39,0,0,1,11.39-11.39Z" class="i"/><path d="M88.55,14.82S110.55,0,141.29,0" class="j"/><path d="M160.8,1.88S181,5.44,196.34,16.27" class="k"/><path d="M228.25,49.23s12.86,18.74,14.09,47" class="l"/><path d="M227.11,154.77s14.09-21.64,15.36-48.08" class="m"/><path d="M184.15,192.84s8.82-4.16,14.25-8.15" class="n"/><path d="M54.95,48.42A95.18,95.18,0,0,0,42,80.61" class="o"/><path d="M95,26.37s43.14-29.61,92.53,0" class="p"/><path d="M216.56,55.66a86.06,86.06,0,0,1,10.9,27.84" class="q"/><path d="M229,94.68s4.23,24.15-12.44,52" class="r"/></svg>