<svg xmlns="http://www.w3.org/2000/svg" xmlns:xlink="http://www.w3.org/1999/xlink" viewBox="0 0 283.46 283.46"><defs><style>.a{fill:url(#a)}.b{fill:url(#b)}.c{fill:url(#c)}.d{fill:url(#d)}.e{fill:url(#e)}.f{fill:url(#f)}.g{fill:url(#g)}.h{fill:url(#h)}.i{fill:url(#i)}.j{fill:url(#j)}</style><linearGradient id="a" x1="-2555.71" x2="-2555.17" y1="3327.75" y2="3179.12" gradientTransform="translate(-2413.69 3328.05) rotate(180)" gradientUnits="userSpaceOnUse"><stop offset="0" stop-color="#fff" stop-opacity="0"/><stop offset=".1" stop-color="#fafffd" stop-opacity=".02"/><stop offset=".22" stop-color="#ecfff5" stop-opacity=".09"/><stop offset=".36" stop-color="#d6ffea" stop-opacity=".19"/><stop offset=".51" stop-color="#b6ffd9" stop-opacity=".34"/><stop offset=".68" stop-color="#8effc4" stop-opacity=".53"/><stop offset=".84" stop-color="#5dffab" stop-opacity=".76"/><stop offset="1" stop-color="#2aff91"/></linearGradient><linearGradient id="b" x1="723.61" x2="774.27" y1="987.3" y2="922.46" gradientTransform="translate(-1063.07 -9.29) rotate(-45)" gradientUnits="userSpaceOnUse"><stop offset="0" stop-color="#273469"/><stop offset=".18" stop-color="#283877"/><stop offset=".51" stop-color="#2a449b"/><stop offset=".95" stop-color="#2e56d5"/><stop offset="1" stop-color="#2e58db"/></linearGradient><linearGradient id="c" x1="135.96" x2="235.1" y1="273.03" y2="146.15" gradientTransform="matrix(1, 0, 0, 1, 0, 0)" xlink:href="#b"/><linearGradient id="d" x1="69.07" x2="127.99" y1="247.48" y2="172.07" gradientTransform="matrix(1, 0, 0, 1, 0, 0)" xlink:href="#b"/><linearGradient id="e" x1="721.85" x2="761.75" y1="987.57" y2="936.5" gradientTransform="translate(-1063.07 -9.29) rotate(-45)" gradientUnits="userSpaceOnUse"><stop offset="0" stop-color="#196cf2"/><stop offset="1" stop-color="#59cef1"/></linearGradient><linearGradient id="f" x1="137.19" x2="215.29" y1="254.13" y2="154.17" gradientTransform="matrix(1, 0, 0, 1, 0, 0)" xlink:href="#e"/><linearGradient id="g" x1="84.5" x2="130.91" y1="234" y2="174.59" gradientTransform="matrix(1, 0, 0, 1, 0, 0)" xlink:href="#e"/><linearGradient id="h" x1="719.11" x2="746.83" y1="988.62" y2="953.14" gradientTransform="translate(-1063.07 -9.29) rotate(-45)" gradientUnits="userSpaceOnUse"><stop offset="0" stop-color="#00a022"/><stop offset="1" stop-color="#2aff91"/></linearGradient><linearGradient id="i" x1="138.58" x2="192.82" y1="233.73" y2="164.31" gradientTransform="matrix(1, 0, 0, 1, 0, 0)" xlink:href="#h"/><linearGradient id="j" x1="101.98" x2="134.22" y1="219.75" y2="178.49" gradientTransform="matrix(1, 0, 0, 1, 0, 0)" xlink:href="#h"/></defs><title>MyBit-Icon-Set</title><rect width="173.71" height="149.62" x="54.89" class="a"/><polygon points="228.6 136.62 141.75 180.17 54.89 136.62 141.75 93.07 228.6 136.62" class="b"/><polygon points="228.6 136.62 141.75 180.17 141.75 283.46 228.6 239.91 228.6 136.62" class="c"/><polygon points="141.75 283.46 54.89 239.91 54.89 136.62 141.75 180.17 141.75 283.46" class="d"/><polygon points="210.17 146.67 141.75 180.98 73.33 146.67 141.75 112.36 210.17 146.67" class="e"/><polygon points="210.17 146.67 141.75 180.98 141.75 262.34 210.17 228.04 210.17 146.67" class="f"/><polygon points="141.75 262.34 73.33 228.04 73.33 146.67 141.75 180.98 141.75 262.34" class="g"/><polygon points="189.27 159.1 141.75 182.92 94.23 159.1 141.75 135.27 189.27 159.1" class="h"/><polygon points="189.27 159.1 141.75 182.92 141.75 239.44 189.27 215.61 189.27 159.1" class="i"/><polygon points="141.75 239.44 94.23 215.61 94.23 159.1 141.75 182.92 141.75 239.44" class="j"/></svg>