<svg xmlns="http://www.w3.org/2000/svg" xmlns:xlink="http://www.w3.org/1999/xlink" viewBox="0 0 283.46 283.46"><defs><style>.a{fill:url(#a)}.b{fill:url(#b)}.c{fill:url(#c)}.d{fill:url(#d)}.e{fill:url(#e)}.f{fill:url(#f)}.g{fill:url(#g)}.h{fill:url(#h)}.i{fill:url(#i)}.j{fill:url(#j)}.k{fill:url(#k)}.l{fill:url(#l)}.m{fill:url(#m)}.n{fill:url(#n)}</style><linearGradient id="a" x1="70.77" x2="199.39" y1="211.86" y2="84.76" gradientUnits="userSpaceOnUse"><stop offset="0" stop-color="#273469"/><stop offset=".18" stop-color="#283877"/><stop offset=".51" stop-color="#2a449b"/><stop offset=".95" stop-color="#2e56d5"/><stop offset="1" stop-color="#2e58db"/></linearGradient><radialGradient id="b" cx="46.9" cy="46.9" r="46.9" gradientUnits="userSpaceOnUse"><stop offset="0" stop-color="#2aff91"/><stop offset="1" stop-color="#fff" stop-opacity="0"/></radialGradient><radialGradient id="c" cx="236.57" cy="46.9" r="46.9" xlink:href="#b"/><radialGradient id="d" cx="46.9" cy="236.57" r="46.9" xlink:href="#b"/><radialGradient id="e" cx="236.57" cy="236.57" r="46.9" xlink:href="#b"/><linearGradient id="f" x1="41.65" x2="52.14" y1="46.9" y2="46.9" gradientUnits="userSpaceOnUse"><stop offset="0" stop-color="#196cf2"/><stop offset="1" stop-color="#59cef1"/></linearGradient><linearGradient id="g" x1="-1313.21" x2="-1302.72" y1="2092.73" y2="2092.73" gradientTransform="translate(1544.54 -1856.16)" xlink:href="#f"/><linearGradient id="h" x1="-943.82" x2="-933.34" y1="661.67" y2="661.67" gradientTransform="translate(1175.15 -614.77)" xlink:href="#f"/><linearGradient id="i" x1="39.48" x2="54.17" y1="54.76" y2="39.18" xlink:href="#a"/><linearGradient id="j" x1="229.66" x2="243.77" y1="54.52" y2="38.95" xlink:href="#a"/><linearGradient id="k" x1="229.88" x2="242.81" y1="246.14" y2="227.63" xlink:href="#a"/><linearGradient id="l" x1="-457.06" x2="-446.58" y1="3332.73" y2="3332.73" gradientTransform="translate(498.71 -3096.16)" xlink:href="#f"/><linearGradient id="m" x1="39.84" x2="53.65" y1="244.37" y2="229.09" xlink:href="#a"/><linearGradient id="n" x1="130.83" x2="151.91" y1="157.35" y2="127.16" gradientUnits="userSpaceOnUse"><stop offset="0" stop-color="#00a022"/><stop offset="1" stop-color="#2aff91"/></linearGradient></defs><title>MyBit-Icon-Set</title><path d="M237.42,238.73s-47.75-34.95-95.69-34.95S46,238.73,46,238.73,81,189.67,81,141.73,46,44.73,46,44.73s47.75,36.11,95.69,36.11,95.69-36.11,95.69-36.11-34.95,49.06-34.95,97S237.42,238.73,237.42,238.73Z" class="a"/><circle cx="46.9" cy="46.9" r="46.9" class="b"/><circle cx="236.57" cy="46.9" r="46.9" class="c"/><circle cx="46.9" cy="236.57" r="46.9" class="d"/><circle cx="236.57" cy="236.57" r="46.9" class="e"/><rect width="10.49" height="72.34" x="41.65" y="10.73" class="f" rx="2.72" ry="2.72"/><rect width="10.49" height="72.34" x="231.33" y="200.4" class="g" rx="2.72" ry="2.72" transform="translate(473.14 0) rotate(90)"/><rect width="10.49" height="72.34" x="231.33" y="10.73" class="h" rx="2.72" ry="2.72" transform="translate(102.45 -153.54) rotate(45)"/><circle cx="46.9" cy="46.9" r="11.68" class="i"/><circle cx="236.57" cy="46.9" r="11.68" class="j"/><circle cx="236.57" cy="236.57" r="11.68" class="k"/><rect width="10.49" height="72.34" x="41.65" y="200.4" class="l" rx="2.72" ry="2.72" transform="translate(247.34 370.69) rotate(135)"/><circle cx="46.9" cy="236.57" r="11.68" class="m"/><rect width="15.42" height="37.74" x="134.02" y="122.86" class="n" rx="2.14" ry="2.14"/></svg>