<svg xmlns="http://www.w3.org/2000/svg" xmlns:xlink="http://www.w3.org/1999/xlink" id="Hyqpanyzm" version="1.1" viewBox="0 0 500 500"><title>Artboard Copy 2</title><desc>Created with Sketch.</desc><defs><linearGradient id="escrowLinearGradient-1" x1=".986%" x2="99.1%" y1="98.74%" y2="1.184%"><stop offset="0%" stop-color="#196CF2"/><stop offset="100%" stop-color="#59CEF1"/></linearGradient><linearGradient id="escrowLinearGradient-2" x1="21.183%" x2="79.225%" y1="123.243%" y2="-24.282%"><stop offset="0%" stop-color="#273469"/><stop offset="18%" stop-color="#283877"/><stop offset="51%" stop-color="#2A449B"/><stop offset="95%" stop-color="#2E56D5"/><stop offset="100%" stop-color="#2E58DB"/></linearGradient><linearGradient id="escrowLinearGradient-3" x1="29.317%" x2="70.683%" y1="279.535%" y2="-179.69%"><stop offset="0%" stop-color="#273469"/><stop offset="18%" stop-color="#283877"/><stop offset="51%" stop-color="#2A449B"/><stop offset="95%" stop-color="#2E56D5"/><stop offset="100%" stop-color="#2E58DB"/></linearGradient><linearGradient id="escrowLinearGradient-4" x1="20.865%" x2="79.514%" y1="87.253%" y2="12.215%"><stop offset="0%" stop-color="#00A022"/><stop offset="100%" stop-color="#2AFF91"/></linearGradient><linearGradient id="escrowLinearGradient-5" x1="20.865%" x2="79.514%" y1="87.253%" y2="12.291%"><stop offset="0%" stop-color="#00A022"/><stop offset="100%" stop-color="#2AFF91"/></linearGradient><linearGradient id="escrowLinearGradient-6" x1="20.941%" x2="79.514%" y1="87.253%" y2="12.215%"><stop offset="0%" stop-color="#00A022"/><stop offset="100%" stop-color="#2AFF91"/></linearGradient><linearGradient id="escrowLinearGradient-7" x1="20.941%" x2="79.514%" y1="87.253%" y2="12.291%"><stop offset="0%" stop-color="#00A022"/><stop offset="100%" stop-color="#2AFF91"/></linearGradient><linearGradient id="escrowLinearGradient-8" x1="-54.871%" x2="266.798%" y1="2720.349%" y2="-5469.767%"><stop offset="0%" stop-color="#196CF2"/><stop offset="100%" stop-color="#59CEF1"/></linearGradient><linearGradient id="escrowLinearGradient-9" x1="12.943%" x2="90.354%" y1="103.079%" y2="5.316%"><stop offset="0%" stop-color="#00A022"/><stop offset="100%" stop-color="#2AFF91"/></linearGradient><linearGradient id="escrowLinearGradient-10" x1="83.454%" x2="11.428%" y1="97.838%" y2="7.885%"><stop offset="0%" stop-color="#00A022"/><stop offset="100%" stop-color="#2AFF91"/></linearGradient><linearGradient id="escrowLinearGradient-11" x1="-25.123%" x2="365.438%" y1="69.921%" y2="-13.529%"><stop offset="0%" stop-color="#00A022"/><stop offset="100%" stop-color="#2AFF91"/></linearGradient><linearGradient id="escrowLinearGradient-12" x1="-187.863%" x2="314.286%" y1="86.391%" y2="3.019%"><stop offset="0%" stop-color="#00A022"/><stop offset="100%" stop-color="#2AFF91"/></linearGradient><linearGradient id="escrowLinearGradient-13" x1="-249.881%" x2="127.506%" y1="116.21%" y2="32.838%"><stop offset="0%" stop-color="#00A022"/><stop offset="100%" stop-color="#2AFF91"/></linearGradient><linearGradient id="escrowLinearGradient-14" x1="19.712%" x2="79.228%" y1="89.218%" y2="12.367%"><stop offset="0%" stop-color="#00A022"/><stop offset="100%" stop-color="#2AFF91"/></linearGradient></defs><g id="SJe56a3yfX" fill-rule="evenodd"><g id="r1Wc662JGQ" fill-rule="nonzero"><path id="H1fqpa3kM7" d="M7,0 L357.49,0 C361.085374,3.12728741e-14 364,2.91462628 364,6.51 L364,340.49 C364,344.085374 361.085374,347 357.49,347 L6.51,347 C2.91462628,347 -7.55329949e-15,344.085374 -7.99360578e-15,340.49 L-8.8817842e-16,7 C-1.36162605e-15,3.13400675 3.13400675,-1.78006981e-16 7,-8.8817842e-16 Z"/><rect id="SJX9p63yGQ" width="295.579" height="144.811" x="35.579" y="46.449" rx="3.33"/><rect id="HJE56a3yf7" width="134.105" height="16.394" x="46.526" y="218.583" rx="2.39"/><ellipse id="SkScp63yzm" cx="234" cy="239.075" rx="15.053" ry="15.028"/><ellipse id="HyLcp621zQ" cx="234" cy="299.185" rx="15.053" ry="15.028"/><ellipse id="rJDcpphkG7" cx="296.947" cy="239.075" rx="15.053" ry="15.028"/><ellipse id="SJd5T6nkMX" cx="296.947" cy="299.185" rx="15.053" ry="15.028"/><rect id="BJFc6T21fQ" width="109.474" height="5.465" x="62.947" y="224.047" rx=".86"/><path id="Hycqap2kzm" d="M153.684429,224.047244 L70.8561665,224.047244 L57.5142067,327.69852 C57.3331517,329.103564 57.7641292,330.518466 58.7005103,331.593165 C59.6368915,332.667864 60.9912029,333.301964 62.4283724,333.338583 L161.989369,333.338583 C163.429267,333.309537 164.788425,332.67758 165.726467,331.600975 C166.664509,330.52437 167.092601,329.105073 166.903535,327.69852 L153.684429,224.047244 Z"/><path id="H1scTphJz7" d="M164.646583,224.047244 L81.7914578,224.047244 L68.4737005,332.916984 C68.2625189,334.37661 68.6926952,335.855901 69.6555127,336.981 C70.6183302,338.106099 72.0216656,338.769356 73.5108596,338.80315 L172.927181,338.80315 C174.394618,338.735697 175.765069,338.058042 176.700902,336.937137 C177.636735,335.816232 178.050944,334.356288 177.841482,332.916984 L164.646583,224.047244 Z"/><path id="rkn56p21fm" d="M134.507582,144.811024 L131.556798,135.470958 L111.953527,135.470958 L109.002743,144.811024 L98.5263158,144.811024 L115.75066,92.8976378 L127.782539,92.8976378 L145.052632,144.811024 L134.507582,144.811024 Z M115.041557,125.889548 L128.537391,125.889548 L121.789474,104.699426 L115.041557,125.889548 Z"/><polygon id="rkpqa6hkfQ" points="191.579 92.898 191.579 102.687 178.535 102.687 178.535 144.811 168.999 144.811 168.999 102.687 156 102.687 156 92.898"/><polygon id="SkR5pa2yfX" points="270.947 92.898 270.947 144.811 260.547 144.811 260.547 111.054 245.577 135.166 244.367 135.166 229.545 111.054 229.545 144.811 218.947 144.811 218.947 92.898 229.718 92.898 244.984 117.42 260.152 92.898"/></g><g id="Skyg5pa3JzX" fill-rule="nonzero"><path id="S1xe9aThyfX" d="M7,-5.68434189e-14 L159.413985,-5.68434189e-14 L159.413985,128.223713 L-2.84217094e-13,128.223713 L-2.83328916e-13,7 C-2.83802364e-13,3.13400675 3.13400675,-5.5245069e-14 7,-5.59552404e-14 Z"/><path id="BkWx5aphJf7" d="M38.9089474,45.4488189 L159.562445,45.4488189 L159.562445,128.354797 L35.5789474,128.354797 L35.5789474,48.7788189 C35.5789474,46.9397107 37.0698392,45.4488189 38.9089474,45.4488189 Z"/><path id="Byzecp63kz7" d="M131.409476,128.382516 L112.575253,128.382516 L103.841215,128.382516 L115.75066,91.8976378 L127.782539,91.8976378 L139.698502,128.382516 L131.409476,128.382516 Z M115.041557,124.889548 L128.537391,124.889548 L121.789474,103.699426 L115.041557,124.889548 Z"/></g></g><script>(function(){var a=document.querySelector(&apos;#Hyqpanyzm&apos;),b=a.querySelectorAll(&apos;style&apos;),c=function(d){b.forEach(function(f){var g=f.textContent;g&amp;&amp;(f.textContent=g.replace(/transform-box:[^;\r\n]*/gi,&apos;transform-box: &apos;+d))})};c(&apos;initial&apos;),window.requestAnimationFrame(function(){return c(&apos;fill-box&apos;)})})();</script></svg>