<svg xmlns="http://www.w3.org/2000/svg" xmlns:xlink="http://www.w3.org/1999/xlink" id="BkEUr0T1GQ" version="1.1" viewBox="0 0 500 500"><style>@-webkit-keyframes SkEl8HAakGX_SkxIRTJGm_Animation{0%,to{-webkit-transform:translate(0,0);transform:translate(0,0)}43.33%{-webkit-transform:translate(-280px,0);transform:translate(-280px,0)}}@keyframes SkEl8HAakGX_SkxIRTJGm_Animation{0%,to{-webkit-transform:translate(0,0);transform:translate(0,0)}43.33%{-webkit-transform:translate(-280px,0);transform:translate(-280px,0)}}#BkEUr0T1GQ *{-webkit-animation-duration:3s;animation-duration:3s;-webkit-animation-iteration-count:infinite;animation-iteration-count:infinite;-webkit-animation-timing-function:cubic-bezier(0,0,1,1);animation-timing-function:cubic-bezier(0,0,1,1)}#r1BUBAakGQ{stroke:none;stroke-width:1;fill:none}#By8UrCT1G7{-webkit-transform:translate(2px,84px);transform:translate(2px,84px)}#BJPIHAakfQ{fill:url(#assetLinearGradient-1)}#SkdIr0akf7{fill:url(#assetLinearGradient-2)}#ByYLrC6yz7{fill:url(#assetLinearGradient-3)}#ry9UBApJfQ{fill:url(#assetLinearGradient-4)}#ryiIrA61zm{fill:url(#assetLinearGradient-5)}#ByhUBRayf7{fill:url(#assetLinearGradient-4)}#By6IrCT1z7{fill:url(#assetLinearGradient-5)}#S1AUB0pJGX{fill:url(#assetLinearGradient-6)}#Bkyg8HR6yfQ{fill:url(#assetLinearGradient-7)}#SkggISCTJfm{fill:url(#assetLinearGradient-8)}#HyZx8r0TkM7{fill:url(#assetLinearGradient-9)}#Byfx8H0T1f7{fill:url(#assetLinearGradient-10)}#rJ7xUSAa1fX{fill:url(#assetLinearGradient-11);-webkit-transform:translate(72.683646px,170.232478px) rotate(-14.31deg) translate(-72.683646px,-170.232478px);transform:translate(72.683646px,170.232478px) rotate(-14.31deg) translate(-72.683646px,-170.232478px)}#SkEl8HAakGX{-webkit-transform:translate(339px,229px);transform:translate(339px,229px)}#HySeLBCTJfQ{fill:url(#asserRadialGradient-12);opacity:.3}#HJIxISA6yz7{fill:url(#assetLinearGradient-13)}#B1wxIH0p1Gm{fill:url(#assetLinearGradient-14)}#H1Ox8rRT1GQ{fill:url(#assetLinearGradient-15)}#SkEl8HAakGX_SkxIRTJGm{-webkit-animation-name:SkEl8HAakGX_SkxIRTJGm_Animation;animation-name:SkEl8HAakGX_SkxIRTJGm_Animation;-webkit-transform-origin:50% 50%;transform-origin:50% 50%;transform-box:fill-box;-webkit-transform:translate(0,0);transform:translate(0,0)}</style><title>Artboard</title><desc>Created with Sketch.</desc><defs><linearGradient id="assetLinearGradient-1" x1="6.51%" x2="92.649%" y1="107.777%" y2="-6.665%"><stop offset="0%" stop-color="#273469"/><stop offset="18%" stop-color="#283877"/><stop offset="51%" stop-color="#2A449B"/><stop offset="95%" stop-color="#2E56D5"/><stop offset="100%" stop-color="#2E58DB"/></linearGradient><linearGradient id="assetLinearGradient-2" x1="-23.811%" x2="124.898%" y1="74.092%" y2="25.563%"><stop offset="0%" stop-color="#00A022"/><stop offset="100%" stop-color="#2AFF91"/></linearGradient><linearGradient id="assetLinearGradient-3" x1="-16.591%" x2="117.585%" y1="10.045%" y2="76.787%"><stop offset="0%" stop-color="#00A022"/><stop offset="100%" stop-color="#2AFF91"/></linearGradient><linearGradient id="assetLinearGradient-4" x1="-18.556%" x2="125.86%" y1="64.75%" y2="23.298%"><stop offset="0%" stop-color="#00A022"/><stop offset="100%" stop-color="#2AFF91"/></linearGradient><linearGradient id="assetLinearGradient-5" x1="-16.624%" x2="117.59%" y1="10.045%" y2="76.787%"><stop offset="0%" stop-color="#00A022"/><stop offset="100%" stop-color="#2AFF91"/></linearGradient><linearGradient id="assetLinearGradient-6" x1="-18.414%" x2="126.002%" y1="64.75%" y2="23.298%"><stop offset="0%" stop-color="#00A022"/><stop offset="100%" stop-color="#2AFF91"/></linearGradient><linearGradient id="assetLinearGradient-7" x1="-16.482%" x2="117.732%" y1="10.045%" y2="76.787%"><stop offset="0%" stop-color="#00A022"/><stop offset="100%" stop-color="#2AFF91"/></linearGradient><linearGradient id="assetLinearGradient-8" x1="-18.556%" x2="125.888%" y1="64.75%" y2="23.298%"><stop offset="0%" stop-color="#00A022"/><stop offset="100%" stop-color="#2AFF91"/></linearGradient><linearGradient id="assetLinearGradient-9" x1="49.997%" x2="49.997%" y1="98.697%" y2=".599%"><stop offset="0%" stop-color="#196CF2"/><stop offset="100%" stop-color="#59CEF1"/></linearGradient><linearGradient id="assetLinearGradient-10" x1="22.972%" x2="76.506%" y1="352.996%" y2="-247.147%"><stop offset="0%" stop-color="#273469"/><stop offset="18%" stop-color="#283877"/><stop offset="51%" stop-color="#2A449B"/><stop offset="95%" stop-color="#2E56D5"/><stop offset="100%" stop-color="#2E58DB"/></linearGradient><linearGradient id="assetLinearGradient-11" x1="14.539%" x2="84.74%" y1="132.673%" y2="-31.171%"><stop offset="0%" stop-color="#273469"/><stop offset="18%" stop-color="#283877"/><stop offset="51%" stop-color="#2A449B"/><stop offset="95%" stop-color="#2E56D5"/><stop offset="100%" stop-color="#2E58DB"/></linearGradient><radialGradient id="asserRadialGradient-12" cx="50%" cy="50%" r="50%" fx="50%" fy="50%" gradientTransform="translate(0.500000,0.500000),scale(1.000000,0.998140),translate(-0.500000,-0.500000)"><stop offset="0%" stop-color="#2AFF91"/><stop offset="100%" stop-color="#FFF" stop-opacity="0"/></radialGradient><linearGradient id="assetLinearGradient-13" x1="7.581%" x2="85.431%" y1="122.986%" y2="20.119%"><stop offset="0%" stop-color="#273469"/><stop offset="100%" stop-color="#2E58DB"/></linearGradient><linearGradient id="assetLinearGradient-14" x1="-1.7%" x2="98.944%" y1="50.029%" y2="50.029%"><stop offset="0%" stop-color="#00A022"/><stop offset="100%" stop-color="#2AFF91"/></linearGradient><linearGradient id="assetLinearGradient-15" x1="10.264%" x2="85.7%" y1="106.433%" y2="22.184%"><stop offset="0%" stop-color="#196CF2"/><stop offset="100%" stop-color="#59CEF1"/></linearGradient></defs><g id="r1BUBAakGQ" fill-rule="evenodd"><g id="By8UrCT1G7" fill-rule="nonzero"><rect id="BJPIHAakfQ" width="383.069" height="288.191" x="2.722" y=".566"/><rect id="SkdIr0akf7" width="95.277" height="168.49" x="26.361" y="121.179"/><path id="ByYLrC6yz7" d="M1.2434629,0.566190476 L49.8766784,0.566190476 L49.8766784,75.5380952 C49.8766784,88.114671 39.6763803,98.31 27.0936749,98.31 L24.0264664,98.31 C17.9840382,98.31 12.1890921,95.9108241 7.91645014,91.6402635 C3.64380816,87.369703 1.2434629,81.5775799 1.2434629,75.5380952 L1.2434629,0.566190476 Z"/><path id="ry9UBApJfQ" d="M49.8766784,0.566190476 L98.4960777,0.566190476 L98.4960777,75.5380952 C98.4960777,81.5775799 96.0957325,87.369703 91.8230905,91.6402635 C87.5504485,95.9108241 81.7555024,98.31 75.7130742,98.31 L72.6458657,98.31 C60.0685562,98.3023765 49.8766761,88.10928 49.8766784,75.5380952 L49.8766784,0.566190476 Z"/><path id="ryiIrA61zm" d="M98.4960777,0.566190476 L147.115477,0.566190476 L147.115477,75.5380952 C147.115479,88.10928 136.923599,98.3023765 124.34629,98.31 L121.265265,98.31 C108.687956,98.3023765 98.4960754,88.10928 98.4960777,75.5380952 L98.4960777,0.566190476 Z"/><path id="ByhUBRayf7" d="M147.115477,0.566190476 L195.734876,0.566190476 L195.734876,75.5380952 C195.734876,88.114671 185.534578,98.31 172.951873,98.31 L169.939929,98.31 C157.357224,98.31 147.156926,88.114671 147.156926,75.5380952 L147.156926,0.566190476 L147.115477,0.566190476 Z"/><path id="By6IrCT1z7" d="M195.734876,0.566190476 L244.354276,0.566190476 L244.354276,75.5380952 C244.354276,81.5775799 241.95393,87.369703 237.681288,91.6402635 C233.408646,95.9108241 227.6137,98.31 221.571272,98.31 L218.51788,98.31 C212.475452,98.31 206.680506,95.9108241 202.407864,91.6402635 C198.135222,87.369703 195.734876,81.5775799 195.734876,75.5380952 L195.734876,0.566190476 Z"/><path id="S1AUB0pJGX" d="M244.354276,0.566190476 L292.904594,0.566190476 L292.904594,75.5380952 C292.904594,88.114671 282.704296,98.31 270.12159,98.31 L267.068198,98.31 C254.485492,98.31 244.285194,88.114671 244.285194,75.5380952 L244.285194,0.566190476 L244.354276,0.566190476 Z"/><path id="Bkyg8HR6yfQ" d="M292.904594,0.566190476 L341.523993,0.566190476 L341.523993,75.5380952 C341.523993,88.114671 331.323695,98.31 318.740989,98.31 L315.687597,98.31 C303.104892,98.31 292.904594,88.114671 292.904594,75.5380952 L292.904594,0.566190476 Z"/><path id="SkggISCTJfm" d="M341.593074,0.566190476 L390.212473,0.566190476 L390.212473,75.5380952 C390.212473,88.114671 380.012175,98.31 367.42947,98.31 L364.376078,98.31 C351.793372,98.31 341.593074,88.114671 341.593074,75.5380952 L341.593074,0.566190476 Z"/><rect id="HyZx8r0TkM7" width="217.178" height="119.798" x="145.195" y="121.179"/><rect id="Byfx8H0T1f7" width="217.178" height="19.361" x="145.195" y="221.629"/><rect id="rJ7xUSAa1fX" width="53.69" height="22.993" x="45.839" y="158.736"/></g><g id="SkEl8HAakGX_SkxIRTJGm" data-animator-group="true" data-animator-type="0"><g id="SkEl8HAakGX" fill-rule="nonzero"><ellipse id="HySeLBCTJfQ" cx="71.909" cy="64.882" rx="63.89" ry="64.009"/><path id="HJIxISA6yz7" d="M159,186.376667 L0.511565217,186.376667 C0.511565217,149.212148 16.8954783,116.84037 41.1187826,99.8995556 C50.0640631,112.351763 64.4424147,119.732316 79.7557826,119.732316 C95.0691505,119.732316 109.447502,112.351763 118.392783,99.8995556 C142.629913,116.84037 159,149.212148 159,186.376667 Z"/><path id="B1wxIH0p1Gm" d="M118.392783,99.8995556 C109.447502,112.351763 95.0691505,119.732316 79.7557826,119.732316 C64.4424147,119.732316 50.0640631,112.351763 41.1187826,99.8995556 C64.1626797,83.1459697 95.3488855,83.1459697 118.392783,99.8995556 Z"/><path id="H1Ox8rRT1GQ" d="M127.379739,72.0296296 C127.398655,82.0418625 124.252643,91.8029755 118.392783,99.9134074 C95.3488855,83.1598216 64.1626797,83.1598216 41.1187826,99.9134074 C29.0813793,83.1623058 29.162031,60.5553262 41.3186462,43.8908601 C53.4752614,27.226394 74.950215,20.2846343 94.5359104,26.6884266 C114.121606,33.092219 127.375194,51.3889173 127.379739,72.0296296 Z"/></g></g></g><script>(function(){var a=document.querySelector(&apos;#BkEUr0T1GQ&apos;),b=a.querySelectorAll(&apos;style&apos;),c=function(d){b.forEach(function(f){var g=f.textContent;g&amp;&amp;(f.textContent=g.replace(/transform-box:[^;\r\n]*/gi,&apos;transform-box: &apos;+d))})};c(&apos;initial&apos;),window.requestAnimationFrame(function(){return c(&apos;fill-box&apos;)})})();</script></svg>