<svg xmlns="http://www.w3.org/2000/svg" xmlns:xlink="http://www.w3.org/1999/xlink" id="By8K-RyGm" version="1.1" viewBox="0 0 500 500"><title>Artboard Copy 6</title><desc>Created with Sketch.</desc><defs><linearGradient id="EndslinearGradient-1" x1="19.712%" x2="79.228%" y1="89.218%" y2="12.367%"><stop offset="0%" stop-color="#00A022"/><stop offset="100%" stop-color="#2AFF91"/></linearGradient></defs><g id="r1lIY-0kfQ" fill-rule="evenodd"><g id="BybUFbC1zQ_r1M5b0JzX" data-animator-group="true" data-animator-type="0"><g id="BybUFbC1zQ" fill-rule="nonzero"><path id="H1GUKZAJMQ" d="M0,-3.48165941e-13 L198.49,-3.49054119e-13 C202.085374,-3.33747912e-13 205,2.91462628 205,6.51 L205,108 L0,108 L0,-3.48165941e-13 Z"/><path id="rJQIY-0JzQ" d="M0,46.4488189 L168.827895,46.4488189 C170.667003,46.4488189 172.157895,47.9397107 172.157895,49.7788189 L172.157895,108 L0,108 L0,46.4488189 Z"/><polygon id="SJEItZAJMm" points="32.579 92.898 32.579 102.687 19.535 102.687 19.535 108 9.999 108 9.999 102.687 0 102.687 0 92.898"/><polygon id="SyrIKW0yfQ" points="111.947 92.898 111.947 108 101.547 108 100.97 108 70.545 108 59.947 108 59.947 92.898 70.718 92.898 83.112 108 89.319 108 101.152 92.898"/></g></g><g id="B1ULtZRyfm_ByL5b01fX" data-animator-group="true" data-animator-type="0"><g id="B1ULtZRyfm" fill-rule="nonzero"><path id="SkwItWCJMm" d="M-1.56319402e-13,0.0639122009 L159.574323,0.0639122009 L159.574323,219 L6.51,219 C2.91462628,219 -1.6476088e-13,216.085374 -1.65201186e-13,212.49 L-1.56319402e-13,0.0639122009 Z"/><path id="r1_IF-01Mm" d="M35.5789474,0.227666361 L159.572259,0.227666361 L159.572259,63.2598425 L38.9089474,63.2598425 C37.0698392,63.2598425 35.5789474,61.7689507 35.5789474,59.9298425 L35.5789474,0.227666361 Z"/><path id="r1KUKWRkGm" d="M48.9163158,90.5826772 L159.725757,90.5826772 L159.725757,106.976378 L48.9163158,106.976378 C47.5963552,106.976378 46.5263158,105.906339 46.5263158,104.586378 L46.5263158,92.9726772 C46.5263158,91.6527166 47.5963552,90.5826772 48.9163158,90.5826772 Z"/><path id="SkcIYZAyfX" d="M63.8073684,96.0472441 L159.561871,96.0472441 L159.561871,101.511811 L63.8073684,101.511811 C63.3324035,101.511811 62.9473684,101.126776 62.9473684,100.651811 L62.9473684,96.9072441 C62.9473684,96.4322792 63.3324035,96.0472441 63.8073684,96.0472441 Z"/><path id="BJi8KW0yz7" d="M153.684429,96.0472441 L70.8561665,96.0472441 L57.5142067,199.69852 C57.3331517,201.103564 57.7641292,202.518466 58.7005103,203.593165 C59.6368915,204.667864 60.9912029,205.301964 62.4283724,205.338583 L159.272751,205.338583 C160.232683,205.319219 158.369909,168.888772 153.684429,96.0472441 Z"/><path id="ry2IF-AyGm" d="M159.699186,96.0472441 L81.7914578,96.0472441 L68.4737005,204.916984 C68.2625189,206.37661 68.6926952,207.855901 69.6555127,208.981 C70.6183302,210.106099 72.0216656,210.769356 73.5108596,210.80315 C150.21072,210.80315 178.973168,210.80315 159.798203,210.80315 C159.765954,210.80315 159.732948,172.551181 159.699186,96.0472441 Z"/><polygon id="BJ6UKb0kfQ" points="134.508 16.811 131.557 7.471 111.954 7.471 109.003 16.811 98.526 16.811 103.901 .296 139.684 .296 145.053 16.811"/></g></g><g id="HJCUKWAyMX_H1d9WCkzm" data-animator-group="true" data-animator-type="0"><g id="HJCUKWAyMX" fill-rule="nonzero"><path id="Hk1e8YWR1f7" d="M7,-5.68434189e-14 L159.413985,-5.68434189e-14 L159.413985,128.223713 L-2.84217094e-13,128.223713 L-2.83328916e-13,7 C-2.83802364e-13,3.13400675 3.13400675,-5.5245069e-14 7,-5.59552404e-14 Z"/><path id="rJexLt-R1MX" d="M38.9089474,45.4488189 L159.562445,45.4488189 L159.562445,128.354797 L35.5789474,128.354797 L35.5789474,48.7788189 C35.5789474,46.9397107 37.0698392,45.4488189 38.9089474,45.4488189 Z"/><path id="HJWx8tb0yMQ" d="M131.409476,128.382516 L112.575253,128.382516 L103.841215,128.382516 L115.75066,91.8976378 L127.782539,91.8976378 L139.698502,128.382516 L131.409476,128.382516 Z M115.041557,124.889548 L128.537391,124.889548 L121.789474,103.699426 L115.041557,124.889548 Z"/></g></g><g id="Hyfx8FWAyfQ_HJ59Z0yfX" data-animator-group="true" data-animator-type="0"><g id="Hyfx8FWAyfQ" fill-rule="nonzero"><path id="Sk7lIF-RkfQ" d="M1,0 L206,0 L206,232.49 C206,236.085374 203.085374,239 199.49,239 L1,239 L1,0 Z"/><path id="SkNx8K-Rkfm" d="M1,0 L173.157895,0 L173.157895,79.9298425 C173.157895,81.7689507 171.667003,83.2598425 169.827895,83.2598425 L1,83.2598425 L1,0 Z"/><path id="B1SxLFbAkzm" d="M1,110.582677 L20.2415789,110.582677 C21.5615395,110.582677 22.6315789,111.652717 22.6315789,112.972677 L22.6315789,124.586378 C22.6315789,125.906339 21.5615395,126.976378 20.2415789,126.976378 L1,126.976378 L1,110.582677 Z"/><ellipse id="r1UeIF-01zX" cx="76" cy="131.075" rx="15.053" ry="15.028"/><ellipse id="H1wlUYWCkzX" cx="76" cy="191.185" rx="15.053" ry="15.028"/><ellipse id="BJdxIYbRkzQ" cx="138.947" cy="131.075" rx="15.053" ry="15.028"/><ellipse id="SJKeLYbAyfm" cx="138.947" cy="191.185" rx="15.053" ry="15.028"/><path id="SkqeUtWRJf7" d="M1,116.047244 L13.5610526,116.047244 C14.0360175,116.047244 14.4210526,116.432279 14.4210526,116.907244 L14.4210526,120.651811 C14.4210526,121.126776 14.0360175,121.511811 13.5610526,121.511811 L1,121.511811 L1,116.047244 Z"/><path id="B1ilLtW0yfQ" d="M6.6465825,116.047244 L1.18960541,116.047244 C1.33230459,192.551181 1.33457384,230.80315 1.19641317,230.80315 C-1.85485061,230.80315 2.7220719,230.80315 14.9271807,230.80315 C16.3946184,230.735697 17.765069,230.058042 18.7009018,228.937137 C19.6367346,227.816232 20.0509436,226.356288 19.8414823,224.916984 L6.6465825,116.047244 Z"/><polygon id="Bkhe8Yb0yGQ" points="20.535 .027 20.535 36.811 10.999 36.811 10.999 .031"/><polygon id="SyalUKZA1fX" points="112.947 .071 112.947 36.811 102.547 36.811 102.547 3.054 87.577 27.166 86.367 27.166 71.545 3.054 71.545 36.811 60.947 36.811 60.947 .186 81.207 .139 86.984 9.42 92.781 .048"/></g></g></g><script>(function(){var a=document.querySelector(&apos;#By8K-RyGm&apos;),b=a.querySelectorAll(&apos;style&apos;),c=function(d){b.forEach(function(f){var g=f.textContent;g&amp;&amp;(f.textContent=g.replace(/transform-box:[^;\r\n]*/gi,&apos;transform-box: &apos;+d))})};c(&apos;initial&apos;),window.requestAnimationFrame(function(){return c(&apos;fill-box&apos;)})})();</script></svg>