<svg xmlns="http://www.w3.org/2000/svg" xmlns:xlink="http://www.w3.org/1999/xlink" viewBox="0 0 208.52 208.52"><defs><style>.a{fill:url(#a)}.b{fill:url(#b)}.c{opacity:.3;fill:url(#c)}.d{fill:url(#d)}.e{fill:url(#e)}.f{fill:url(#f)}.g{fill:url(#g)}.h{fill:url(#h)}.i{fill:url(#i)}.j{fill:url(#j)}.k{fill:url(#k)}.l{fill:url(#l)}.m{fill:url(#m)}.n{fill:url(#n)}</style><linearGradient id="a" x1="573.53" x2="594.99" y1="-967.76" y2="-995.23" gradientTransform="translate(412.76 1221.38) rotate(-45)" gradientUnits="userSpaceOnUse"><stop offset="0" stop-color="#273469"/><stop offset=".18" stop-color="#283877"/><stop offset=".51" stop-color="#2a449b"/><stop offset=".95" stop-color="#2e56d5"/><stop offset="1" stop-color="#2e58db"/></linearGradient><linearGradient id="b" x1="101.09" x2="126.05" y1="161.31" y2="129.36" gradientTransform="matrix(1, 0, 0, 1, 0, 0)" xlink:href="#a"/><radialGradient id="c" cx="95.09" cy="107.6" r="67" gradientUnits="userSpaceOnUse"><stop offset="0" stop-color="#2aff91"/><stop offset="1" stop-color="#fff" stop-opacity="0"/></radialGradient><linearGradient id="d" x1="129.43" x2="171.43" y1="172.14" y2="118.38" gradientTransform="matrix(1, 0, 0, 1, 0, 0)" xlink:href="#a"/><linearGradient id="e" x1="92.64" x2="134.65" y1="190.57" y2="136.82" gradientTransform="matrix(1, 0, 0, 1, 0, 0)" xlink:href="#a"/><linearGradient id="f" x1="534.48" x2="555.94" y1="-980.74" y2="-1008.21" xlink:href="#a"/><linearGradient id="g" x1="64.3" x2="89.27" y1="179.75" y2="147.8" gradientTransform="matrix(1, 0, 0, 1, 0, 0)" xlink:href="#a"/><linearGradient id="h" x1="129.43" x2="171.43" y1="128.37" y2="74.61" gradientTransform="matrix(1, 0, 0, 1, 0, 0)" xlink:href="#a"/><linearGradient id="i" x1="604.48" x2="625.94" y1="-998.71" y2="-1026.18" xlink:href="#a"/><linearGradient id="j" x1="101.09" x2="126.05" y1="117.54" y2="85.59" gradientTransform="matrix(1, 0, 0, 1, 0, 0)" xlink:href="#a"/><linearGradient id="k" x1="1938.05" x2="1938.26" y1="982.14" y2="925.61" gradientTransform="translate(2033.24 995.74) rotate(180)" gradientUnits="userSpaceOnUse"><stop offset="0" stop-color="#fff" stop-opacity="0"/><stop offset=".1" stop-color="#fafffd" stop-opacity=".02"/><stop offset=".22" stop-color="#ecfff5" stop-opacity=".09"/><stop offset=".36" stop-color="#d6ffea" stop-opacity=".19"/><stop offset=".51" stop-color="#b6ffd9" stop-opacity=".34"/><stop offset=".68" stop-color="#8effc4" stop-opacity=".53"/><stop offset=".84" stop-color="#5dffab" stop-opacity=".76"/><stop offset="1" stop-color="#2aff91"/></linearGradient><linearGradient id="l" x1="579.2" x2="600.66" y1="-1025.48" y2="-1052.95" gradientTransform="translate(412.76 1221.38) rotate(-45)" gradientUnits="userSpaceOnUse"><stop offset="0" stop-color="#00a022"/><stop offset="1" stop-color="#2aff91"/></linearGradient><linearGradient id="m" x1="92.63" x2="134.63" y1="127.31" y2="73.55" gradientTransform="matrix(1, 0, 0, 1, 0, 0)" xlink:href="#l"/><linearGradient id="n" x1="64.29" x2="89.25" y1="116.49" y2="84.54" gradientTransform="matrix(1, 0, 0, 1, 0, 0)" xlink:href="#l"/></defs><title>1</title><polygon points="168.68 114.34 131.88 132.8 95.08 114.34 131.88 95.89 168.68 114.34" class="a"/><polygon points="131.88 176.56 95.08 158.11 95.08 114.34 131.88 132.8 131.88 176.56" class="b"/><circle cx="95.09" cy="107.6" r="67" class="c"/><polygon points="168.68 114.34 131.88 132.8 131.88 176.56 168.68 158.11 168.68 114.34" class="d"/><polygon points="131.89 132.78 95.09 151.23 95.09 194.99 131.89 176.54 131.89 132.78" class="e"/><polygon points="131.89 132.78 95.09 151.23 58.3 132.78 95.09 114.33 131.89 132.78" class="f"/><polygon points="95.09 194.99 58.3 176.54 58.3 132.78 95.09 151.23 95.09 194.99" class="g"/><polygon points="168.68 70.57 131.88 89.02 131.88 132.78 168.68 114.33 168.68 70.57" class="h"/><polygon points="168.68 70.57 131.88 89.02 95.08 70.57 131.88 52.12 168.68 70.57" class="i"/><polygon points="131.88 132.78 95.08 114.33 95.08 70.57 131.88 89.02 131.88 132.78" class="j"/><rect width="73.6" height="56.88" x="58.28" y="13.5" class="k"/><polygon points="131.88 69.52 95.08 87.97 58.28 69.52 95.08 51.07 131.88 69.52" class="l"/><polygon points="131.88 69.52 95.08 87.97 95.08 131.73 131.88 113.28 131.88 69.52" class="m"/><polygon points="95.08 131.73 58.28 113.28 58.28 69.52 95.08 87.97 95.08 131.73" class="n"/></svg>